<?xml version="1.0" standalone="no"?><!DOCTYPE svg PUBLIC "-//W3C//DTD SVG 1.1//EN" "http://www.w3.org/Graphics/SVG/1.1/DTD/svg11.dtd"><svg t="1766483175853" class="icon" viewBox="0 0 1024 1024" version="1.1" xmlns="http://www.w3.org/2000/svg" p-id="4234" width="32" height="32" xmlns:xlink="http://www.w3.org/1999/xlink"><path d="M768 347.136h-124.416v-129.536c0-71.168-57.856-129.536-129.536-129.536s-129.536 57.856-129.536 129.536v129.536H256c-59.904 0-109.056 48.64-109.056 109.056v371.2c0 59.904 48.64 109.056 109.056 109.056h512c59.904 0 109.056-48.64 109.056-109.056V455.68c-0.512-59.904-49.152-108.544-109.056-108.544z m-321.536-129.536c0-37.376 30.208-68.096 68.096-68.096 37.376 0 68.096 30.208 68.096 68.096v129.536h-135.68v-129.536z m-190.464 190.976h512c26.112 0 47.616 20.992 47.616 47.616v93.696h-606.72V455.68c-0.512-26.112 20.992-47.104 47.104-47.104z m512 465.92h-106.496V742.4c0-16.896-13.824-30.72-30.72-30.72s-30.72 13.824-30.72 30.72v132.096h-177.664V742.4c0-16.896-13.824-30.72-30.72-30.72s-30.72 13.824-30.72 30.72v132.096H256c-26.112 0-47.616-20.992-47.616-47.616v-216.576h606.72v216.576c0 26.112-20.992 47.616-47.104 47.616z" p-id="4235" fill="#707070"></path></svg>