<?xml version="1.0" standalone="no"?><!DOCTYPE svg PUBLIC "-//W3C//DTD SVG 1.1//EN" "http://www.w3.org/Graphics/SVG/1.1/DTD/svg11.dtd"><svg t="1764643996751" class="icon" viewBox="0 0 1024 1024" version="1.1" xmlns="http://www.w3.org/2000/svg" p-id="25861" xmlns:xlink="http://www.w3.org/1999/xlink" width="32" height="32"><path d="M341.333333 298.666667h384V213.333333h42.666667v85.333334h128v554.666666H170.666667V298.666667h128V213.333333h42.666666v85.333334zM213.333333 341.333333v469.333334h640V341.333333H213.333333z m213.333334 85.333334v42.666666H298.666667v-42.666666h128z m170.666666 0v42.666666h-128v-42.666666h128z m170.666667 0v42.666666h-128v-42.666666h128z m-341.333333 256v42.666666H298.666667v-42.666666h128z m170.666666 0v42.666666h-128v-42.666666h128z m170.666667 0v42.666666h-128v-42.666666h128z m-341.333333-128v42.666666H298.666667v-42.666666h128z m170.666666 0v42.666666h-128v-42.666666h128z m170.666667 0v42.666666h-128v-42.666666h128z" fill="#707070" p-id="25862"></path></svg>