<?xml version="1.0" standalone="no"?><!DOCTYPE svg PUBLIC "-//W3C//DTD SVG 1.1//EN" "http://www.w3.org/Graphics/SVG/1.1/DTD/svg11.dtd"><svg t="1765349540311" class="icon" viewBox="0 0 1024 1024" version="1.1" xmlns="http://www.w3.org/2000/svg" p-id="6191" width="32" height="32" xmlns:xlink="http://www.w3.org/1999/xlink"><path d="M940.032 512h-148.032V411.968c76.8 0 139.008-62.144 139.008-138.944a8 8 0 0 0-8-8h-60.032a8 8 0 0 0-8 8c0 34.752-28.16 62.976-62.976 62.976h-560a62.976 62.976 0 0 1-62.976-62.976 8 8 0 0 0-8-8h-60.032a8 8 0 0 0-8 8c0 76.8 62.208 138.944 139.008 138.944V512H83.968a8 8 0 0 0-8 8V576c0 4.416 3.648 8 8 8h148.032v96c0 6.528 0.192 12.992 0.64 19.328a192.128 192.128 0 0 0-116.608 176.64c0 4.48 3.584 8.064 8 8.064h56a8 8 0 0 0 7.936-8.064c0-44.16 23.936-82.88 59.648-103.68a281.408 281.408 0 0 0 123.2 149.504A278.4 278.4 0 0 0 512 960c51.52 0 99.84-13.888 141.312-38.208a281.408 281.408 0 0 0 123.2-149.504c35.584 20.8 59.52 59.52 59.52 103.68 0 4.48 3.584 8.064 7.936 8.064h56.064a8 8 0 0 0 7.936-8.064c0-79.296-48.064-147.392-116.672-176.64 0.384-6.4 0.704-12.8 0.704-19.328v-96h148.032A8 8 0 0 0 947.968 576v-56A8 8 0 0 0 940.032 512z m-224 168a204.352 204.352 0 0 1-166.016 200.512V483.968a8 8 0 0 0-8-8H481.92a8 8 0 0 0-8 8v396.544a204.352 204.352 0 0 1-166.016-200.512V411.968h408v268.032zM304 280h56a8 8 0 0 0 8-8c0-28.288 5.888-53.184 17.088-73.472 10.624-19.456 25.984-34.816 45.44-45.44a152.64 152.64 0 0 1 73.472-17.088h16c28.288 0 53.184 5.888 73.472 17.088 19.456 10.624 34.816 25.984 45.44 45.44 11.072 20.352 17.088 45.184 17.088 73.472 0 4.416 3.584 8 8 8h56a8 8 0 0 0 8-8c0-40-8.768-76.672-25.92-108.16a184.32 184.32 0 0 0-73.984-73.92C596.736 72.768 560 64 520 64h-16c-40 0-76.672 8.768-108.16 25.92A184.32 184.32 0 0 0 321.92 163.84c-17.152 31.36-25.92 68.096-25.92 108.096 0 4.416 3.584 8 8 8z" fill="#707070" p-id="6192"></path></svg>